<mxfile host="65bd71144e" modified="2020-11-15T14:13:06.966Z" agent="5.0 (Macintosh; Intel Mac OS X 10_15_7) AppleWebKit/537.36 (KHTML, like Gecko) Code/1.51.1 Chrome/83.0.4103.122 Electron/9.3.3 Safari/537.36" etag="53Sw8fUlrVXpWl7w18eU" version="13.6.5">
    <diagram id="cq9cHLhcsLVktU-6Qxye" name="Page-1">
        <mxGraphModel dx="1230" dy="815" grid="1" gridSize="10" guides="1" tooltips="1" connect="1" arrows="1" fold="1" page="1" pageScale="1" pageWidth="827" pageHeight="1169" math="0" shadow="0">
            <root>
                <mxCell id="0"/>
                <mxCell id="1" parent="0"/>
                <mxCell id="bcdq2LaiJmFUHbvSh_GW-45" style="edgeStyle=orthogonalEdgeStyle;rounded=0;orthogonalLoop=1;jettySize=auto;html=1;exitX=0.5;exitY=1;exitDx=0;exitDy=0;entryX=0.5;entryY=0;entryDx=0;entryDy=0;" parent="1" source="bcdq2LaiJmFUHbvSh_GW-3" target="bcdq2LaiJmFUHbvSh_GW-10" edge="1">
                    <mxGeometry relative="1" as="geometry"/>
                </mxCell>
                <mxCell id="bcdq2LaiJmFUHbvSh_GW-3" value="Quản lý đăng nhập" style="rounded=0;whiteSpace=wrap;html=1;fontSize=12;glass=0;strokeWidth=1;shadow=0;" parent="1" vertex="1">
                    <mxGeometry x="94" y="80" width="120" height="40" as="geometry"/>
                </mxCell>
                <mxCell id="iNPGE6RBNCg7iyKDNJ3u-21" style="edgeStyle=orthogonalEdgeStyle;rounded=0;orthogonalLoop=1;jettySize=auto;html=1;entryX=0.5;entryY=0;entryDx=0;entryDy=0;" parent="1" source="bcdq2LaiJmFUHbvSh_GW-10" target="bcdq2LaiJmFUHbvSh_GW-18" edge="1">
                    <mxGeometry relative="1" as="geometry"/>
                </mxCell>
                <mxCell id="bcdq2LaiJmFUHbvSh_GW-10" value="Dashboard quản lý" style="rounded=0;whiteSpace=wrap;html=1;" parent="1" vertex="1">
                    <mxGeometry x="94" y="170" width="120" height="60" as="geometry"/>
                </mxCell>
                <mxCell id="bcdq2LaiJmFUHbvSh_GW-16" value="Chọn" style="edgeStyle=orthogonalEdgeStyle;rounded=0;orthogonalLoop=1;jettySize=auto;html=1;" parent="1" source="bcdq2LaiJmFUHbvSh_GW-18" target="bcdq2LaiJmFUHbvSh_GW-20" edge="1">
                    <mxGeometry relative="1" as="geometry"/>
                </mxCell>
                <mxCell id="iNPGE6RBNCg7iyKDNJ3u-25" value="" style="edgeStyle=orthogonalEdgeStyle;rounded=0;orthogonalLoop=1;jettySize=auto;html=1;" parent="1" source="bcdq2LaiJmFUHbvSh_GW-18" target="iNPGE6RBNCg7iyKDNJ3u-24" edge="1">
                    <mxGeometry relative="1" as="geometry"/>
                </mxCell>
                <mxCell id="bcdq2LaiJmFUHbvSh_GW-18" value="Chọn &quot;Lịch chiếu&quot;" style="rhombus;whiteSpace=wrap;html=1;" parent="1" vertex="1">
                    <mxGeometry x="104" y="330" width="100" height="100" as="geometry"/>
                </mxCell>
                <mxCell id="bcdq2LaiJmFUHbvSh_GW-49" value="" style="edgeStyle=orthogonalEdgeStyle;rounded=0;orthogonalLoop=1;jettySize=auto;html=1;" parent="1" source="bcdq2LaiJmFUHbvSh_GW-20" target="bcdq2LaiJmFUHbvSh_GW-48" edge="1">
                    <mxGeometry relative="1" as="geometry"/>
                </mxCell>
                <mxCell id="bcdq2LaiJmFUHbvSh_GW-20" value="Lịch chiếu" style="whiteSpace=wrap;html=1;" parent="1" vertex="1">
                    <mxGeometry x="274" y="350" width="120" height="60" as="geometry"/>
                </mxCell>
                <mxCell id="bcdq2LaiJmFUHbvSh_GW-51" value="Không chọn" style="edgeStyle=orthogonalEdgeStyle;rounded=0;orthogonalLoop=1;jettySize=auto;html=1;" parent="1" source="bcdq2LaiJmFUHbvSh_GW-48" target="bcdq2LaiJmFUHbvSh_GW-50" edge="1">
                    <mxGeometry relative="1" as="geometry"/>
                </mxCell>
                <mxCell id="bcdq2LaiJmFUHbvSh_GW-57" value="Chọn" style="edgeStyle=orthogonalEdgeStyle;rounded=0;orthogonalLoop=1;jettySize=auto;html=1;" parent="1" source="bcdq2LaiJmFUHbvSh_GW-48" target="bcdq2LaiJmFUHbvSh_GW-56" edge="1">
                    <mxGeometry relative="1" as="geometry"/>
                </mxCell>
                <mxCell id="bcdq2LaiJmFUHbvSh_GW-48" value="Chọn &quot;Thêm&amp;nbsp; phim&quot;" style="rhombus;whiteSpace=wrap;html=1;" parent="1" vertex="1">
                    <mxGeometry x="464" y="340" width="80" height="80" as="geometry"/>
                </mxCell>
                <mxCell id="bcdq2LaiJmFUHbvSh_GW-53" value="Không chọn" style="edgeStyle=orthogonalEdgeStyle;rounded=0;orthogonalLoop=1;jettySize=auto;html=1;" parent="1" source="bcdq2LaiJmFUHbvSh_GW-50" target="bcdq2LaiJmFUHbvSh_GW-52" edge="1">
                    <mxGeometry relative="1" as="geometry"/>
                </mxCell>
                <mxCell id="bcdq2LaiJmFUHbvSh_GW-64" style="edgeStyle=orthogonalEdgeStyle;rounded=0;orthogonalLoop=1;jettySize=auto;html=1;entryX=0.25;entryY=0;entryDx=0;entryDy=0;exitX=1;exitY=0.5;exitDx=0;exitDy=0;" parent="1" source="bcdq2LaiJmFUHbvSh_GW-50" target="bcdq2LaiJmFUHbvSh_GW-56" edge="1">
                    <mxGeometry relative="1" as="geometry">
                        <Array as="points">
                            <mxPoint x="604" y="240"/>
                            <mxPoint x="604" y="300"/>
                            <mxPoint x="664" y="300"/>
                        </Array>
                    </mxGeometry>
                </mxCell>
                <mxCell id="bcdq2LaiJmFUHbvSh_GW-50" value="Chọn &quot;Sửa phim&quot;" style="rhombus;whiteSpace=wrap;html=1;" parent="1" vertex="1">
                    <mxGeometry x="464" y="200" width="80" height="80" as="geometry"/>
                </mxCell>
                <mxCell id="bcdq2LaiJmFUHbvSh_GW-61" value="Chọn" style="edgeStyle=orthogonalEdgeStyle;rounded=0;orthogonalLoop=1;jettySize=auto;html=1;" parent="1" source="bcdq2LaiJmFUHbvSh_GW-52" target="bcdq2LaiJmFUHbvSh_GW-60" edge="1">
                    <mxGeometry relative="1" as="geometry"/>
                </mxCell>
                <mxCell id="iNPGE6RBNCg7iyKDNJ3u-22" style="edgeStyle=orthogonalEdgeStyle;rounded=0;orthogonalLoop=1;jettySize=auto;html=1;entryX=0.5;entryY=0;entryDx=0;entryDy=0;" parent="1" source="bcdq2LaiJmFUHbvSh_GW-52" target="bcdq2LaiJmFUHbvSh_GW-20" edge="1">
                    <mxGeometry relative="1" as="geometry"/>
                </mxCell>
                <mxCell id="iNPGE6RBNCg7iyKDNJ3u-23" value="Không chọn" style="edgeLabel;html=1;align=center;verticalAlign=middle;resizable=0;points=[];" parent="iNPGE6RBNCg7iyKDNJ3u-22" vertex="1" connectable="0">
                    <mxGeometry x="-0.4" relative="1" as="geometry">
                        <mxPoint x="-18.33" y="60" as="offset"/>
                    </mxGeometry>
                </mxCell>
                <mxCell id="bcdq2LaiJmFUHbvSh_GW-52" value="Chọn &quot;Xóa&quot;" style="rhombus;whiteSpace=wrap;html=1;" parent="1" vertex="1">
                    <mxGeometry x="464" y="70" width="80" height="80" as="geometry"/>
                </mxCell>
                <mxCell id="bcdq2LaiJmFUHbvSh_GW-59" value="" style="edgeStyle=orthogonalEdgeStyle;rounded=0;orthogonalLoop=1;jettySize=auto;html=1;" parent="1" source="bcdq2LaiJmFUHbvSh_GW-56" target="bcdq2LaiJmFUHbvSh_GW-58" edge="1">
                    <mxGeometry relative="1" as="geometry"/>
                </mxCell>
                <mxCell id="bcdq2LaiJmFUHbvSh_GW-56" value="Nhập thông tin &lt;br&gt;phim" style="shape=parallelogram;perimeter=parallelogramPerimeter;whiteSpace=wrap;html=1;fixedSize=1;" parent="1" vertex="1">
                    <mxGeometry x="634" y="350" width="120" height="60" as="geometry"/>
                </mxCell>
                <mxCell id="bcdq2LaiJmFUHbvSh_GW-58" value="Lưu thông tin quản lý" style="whiteSpace=wrap;html=1;" parent="1" vertex="1">
                    <mxGeometry x="634" y="190" width="120" height="60" as="geometry"/>
                </mxCell>
                <mxCell id="bcdq2LaiJmFUHbvSh_GW-62" value="" style="edgeStyle=orthogonalEdgeStyle;rounded=0;orthogonalLoop=1;jettySize=auto;html=1;" parent="1" source="bcdq2LaiJmFUHbvSh_GW-60" target="bcdq2LaiJmFUHbvSh_GW-58" edge="1">
                    <mxGeometry relative="1" as="geometry"/>
                </mxCell>
                <mxCell id="bcdq2LaiJmFUHbvSh_GW-60" value="Xác nhận xóa." style="whiteSpace=wrap;html=1;" parent="1" vertex="1">
                    <mxGeometry x="634" y="80" width="120" height="60" as="geometry"/>
                </mxCell>
                <mxCell id="iNPGE6RBNCg7iyKDNJ3u-27" value="Chọn" style="edgeStyle=orthogonalEdgeStyle;rounded=0;orthogonalLoop=1;jettySize=auto;html=1;" parent="1" source="iNPGE6RBNCg7iyKDNJ3u-24" target="iNPGE6RBNCg7iyKDNJ3u-26" edge="1">
                    <mxGeometry relative="1" as="geometry"/>
                </mxCell>
                <mxCell id="iNPGE6RBNCg7iyKDNJ3u-28" style="edgeStyle=orthogonalEdgeStyle;rounded=0;orthogonalLoop=1;jettySize=auto;html=1;entryX=0;entryY=0.5;entryDx=0;entryDy=0;" parent="1" source="iNPGE6RBNCg7iyKDNJ3u-24" target="bcdq2LaiJmFUHbvSh_GW-10" edge="1">
                    <mxGeometry relative="1" as="geometry">
                        <Array as="points">
                            <mxPoint x="74" y="740"/>
                            <mxPoint x="74" y="200"/>
                        </Array>
                    </mxGeometry>
                </mxCell>
                <mxCell id="iNPGE6RBNCg7iyKDNJ3u-29" value="Không chọn" style="edgeLabel;html=1;align=center;verticalAlign=middle;resizable=0;points=[];" parent="iNPGE6RBNCg7iyKDNJ3u-28" vertex="1" connectable="0">
                    <mxGeometry x="0.2899" relative="1" as="geometry">
                        <mxPoint y="70" as="offset"/>
                    </mxGeometry>
                </mxCell>
                <mxCell id="iNPGE6RBNCg7iyKDNJ3u-24" value="Chọn&amp;nbsp; &quot;Khuyến mãi&quot;" style="rhombus;whiteSpace=wrap;html=1;" parent="1" vertex="1">
                    <mxGeometry x="104" y="690" width="100" height="100" as="geometry"/>
                </mxCell>
                <mxCell id="iNPGE6RBNCg7iyKDNJ3u-43" value="" style="edgeStyle=orthogonalEdgeStyle;rounded=0;orthogonalLoop=1;jettySize=auto;html=1;" parent="1" source="iNPGE6RBNCg7iyKDNJ3u-26" target="iNPGE6RBNCg7iyKDNJ3u-32" edge="1">
                    <mxGeometry relative="1" as="geometry"/>
                </mxCell>
                <mxCell id="iNPGE6RBNCg7iyKDNJ3u-26" value="Khuyến mãi" style="whiteSpace=wrap;html=1;" parent="1" vertex="1">
                    <mxGeometry x="274" y="710" width="120" height="60" as="geometry"/>
                </mxCell>
                <mxCell id="iNPGE6RBNCg7iyKDNJ3u-30" value="Không chọn" style="edgeStyle=orthogonalEdgeStyle;rounded=0;orthogonalLoop=1;jettySize=auto;html=1;" parent="1" source="iNPGE6RBNCg7iyKDNJ3u-32" target="iNPGE6RBNCg7iyKDNJ3u-35" edge="1">
                    <mxGeometry relative="1" as="geometry"/>
                </mxCell>
                <mxCell id="iNPGE6RBNCg7iyKDNJ3u-31" value="Chọn" style="edgeStyle=orthogonalEdgeStyle;rounded=0;orthogonalLoop=1;jettySize=auto;html=1;" parent="1" source="iNPGE6RBNCg7iyKDNJ3u-32" target="iNPGE6RBNCg7iyKDNJ3u-39" edge="1">
                    <mxGeometry relative="1" as="geometry"/>
                </mxCell>
                <mxCell id="iNPGE6RBNCg7iyKDNJ3u-32" value="Chọn &quot;Thêm&amp;nbsp; khuyến mãi&quot;" style="rhombus;whiteSpace=wrap;html=1;" parent="1" vertex="1">
                    <mxGeometry x="464" y="700" width="80" height="80" as="geometry"/>
                </mxCell>
                <mxCell id="iNPGE6RBNCg7iyKDNJ3u-33" value="Không chọn" style="edgeStyle=orthogonalEdgeStyle;rounded=0;orthogonalLoop=1;jettySize=auto;html=1;" parent="1" source="iNPGE6RBNCg7iyKDNJ3u-35" target="iNPGE6RBNCg7iyKDNJ3u-37" edge="1">
                    <mxGeometry relative="1" as="geometry"/>
                </mxCell>
                <mxCell id="iNPGE6RBNCg7iyKDNJ3u-34" style="edgeStyle=orthogonalEdgeStyle;rounded=0;orthogonalLoop=1;jettySize=auto;html=1;entryX=0.25;entryY=0;entryDx=0;entryDy=0;exitX=1;exitY=0.5;exitDx=0;exitDy=0;" parent="1" source="iNPGE6RBNCg7iyKDNJ3u-35" target="iNPGE6RBNCg7iyKDNJ3u-39" edge="1">
                    <mxGeometry relative="1" as="geometry">
                        <Array as="points">
                            <mxPoint x="604" y="600"/>
                            <mxPoint x="604" y="660"/>
                            <mxPoint x="664" y="660"/>
                        </Array>
                    </mxGeometry>
                </mxCell>
                <mxCell id="iNPGE6RBNCg7iyKDNJ3u-35" value="Chọn &quot;Sửa khuyến mãi&quot;" style="rhombus;whiteSpace=wrap;html=1;" parent="1" vertex="1">
                    <mxGeometry x="464" y="560" width="80" height="80" as="geometry"/>
                </mxCell>
                <mxCell id="iNPGE6RBNCg7iyKDNJ3u-36" value="Chọn" style="edgeStyle=orthogonalEdgeStyle;rounded=0;orthogonalLoop=1;jettySize=auto;html=1;" parent="1" source="iNPGE6RBNCg7iyKDNJ3u-37" target="iNPGE6RBNCg7iyKDNJ3u-42" edge="1">
                    <mxGeometry relative="1" as="geometry"/>
                </mxCell>
                <mxCell id="iNPGE6RBNCg7iyKDNJ3u-37" value="Chọn &quot;Xóa&quot;" style="rhombus;whiteSpace=wrap;html=1;" parent="1" vertex="1">
                    <mxGeometry x="464" y="430" width="80" height="80" as="geometry"/>
                </mxCell>
                <mxCell id="iNPGE6RBNCg7iyKDNJ3u-38" value="" style="edgeStyle=orthogonalEdgeStyle;rounded=0;orthogonalLoop=1;jettySize=auto;html=1;" parent="1" source="iNPGE6RBNCg7iyKDNJ3u-39" target="iNPGE6RBNCg7iyKDNJ3u-40" edge="1">
                    <mxGeometry relative="1" as="geometry"/>
                </mxCell>
                <mxCell id="iNPGE6RBNCg7iyKDNJ3u-39" value="Nhập thông tin &lt;br&gt;khuyến mãi" style="shape=parallelogram;perimeter=parallelogramPerimeter;whiteSpace=wrap;html=1;fixedSize=1;" parent="1" vertex="1">
                    <mxGeometry x="634" y="710" width="120" height="60" as="geometry"/>
                </mxCell>
                <mxCell id="iNPGE6RBNCg7iyKDNJ3u-40" value="Lưu thông tin khuyến mãi" style="whiteSpace=wrap;html=1;" parent="1" vertex="1">
                    <mxGeometry x="634" y="550" width="120" height="60" as="geometry"/>
                </mxCell>
                <mxCell id="iNPGE6RBNCg7iyKDNJ3u-41" value="" style="edgeStyle=orthogonalEdgeStyle;rounded=0;orthogonalLoop=1;jettySize=auto;html=1;" parent="1" source="iNPGE6RBNCg7iyKDNJ3u-42" target="iNPGE6RBNCg7iyKDNJ3u-40" edge="1">
                    <mxGeometry relative="1" as="geometry"/>
                </mxCell>
                <mxCell id="iNPGE6RBNCg7iyKDNJ3u-42" value="Xác nhận xóa." style="whiteSpace=wrap;html=1;" parent="1" vertex="1">
                    <mxGeometry x="634" y="440" width="120" height="60" as="geometry"/>
                </mxCell>
            </root>
        </mxGraphModel>
    </diagram>
</mxfile>